<?xml version="1.0" encoding="utf-8"?>
<!-- Generator: Adobe Illustrator 25.0.0, SVG Export Plug-In . SVG Version: 6.00 Build 0)  -->
<svg version="1.1" id="Capa_1" xmlns="http://www.w3.org/2000/svg" xmlns:xlink="http://www.w3.org/1999/xlink" x="0px" y="0px"
	 viewBox="0 0 313 70" style="enable-background:new 0 0 313 70;" xml:space="preserve">
<style type="text/css">
	.st0{fill:#5FAC29;}
	.st1{fill-rule:evenodd;clip-rule:evenodd;fill:#5FAC29;}
	.st2{fill-rule:evenodd;clip-rule:evenodd;fill:#FFFFFF;}
	.st3{clip-path:url(#SVGID_2_);fill-rule:evenodd;clip-rule:evenodd;fill:#FBCD0E;}
	.st4{clip-path:url(#SVGID_4_);fill-rule:evenodd;clip-rule:evenodd;fill:#009F34;}
	.st5{clip-path:url(#SVGID_4_);fill-rule:evenodd;clip-rule:evenodd;fill:#FBCC00;}
	.st6{clip-path:url(#SVGID_6_);fill-rule:evenodd;clip-rule:evenodd;fill:#A10081;}
	.st7{clip-path:url(#SVGID_8_);fill-rule:evenodd;clip-rule:evenodd;fill:#009F34;}
	.st8{clip-path:url(#SVGID_8_);fill-rule:evenodd;clip-rule:evenodd;fill:#FBCC00;}
	.st9{clip-path:url(#SVGID_10_);fill-rule:evenodd;clip-rule:evenodd;fill:#5FAC29;}
</style>
<g>
	<g>
		<g>
			<path class="st0" d="M135.5,54.7v-3.9c0-0.2,0.1-0.4,0.2-0.5c0.1-0.1,0.3-0.2,0.5-0.2c0.2,0,0.4,0.1,0.5,0.2
				c0.1,0.1,0.2,0.3,0.2,0.5v10.3c0,0.2-0.1,0.4-0.2,0.5c-0.1,0.1-0.3,0.2-0.5,0.2c-0.2,0-0.3-0.1-0.4-0.2c-0.1-0.1-0.2-0.3-0.2-0.5
				v-0.4h0c-0.1,0.3-0.4,0.5-0.7,0.7c-0.3,0.2-0.8,0.3-1.3,0.3c-0.7,0-1.3-0.2-1.8-0.5c-0.5-0.3-0.9-0.8-1.2-1.4
				c-0.3-0.6-0.4-1.3-0.5-2.1c0-0.6,0.1-1.1,0.2-1.6c0.2-0.5,0.4-0.9,0.7-1.3c0.3-0.4,0.7-0.7,1.1-0.9c0.4-0.2,0.9-0.3,1.4-0.3
				C134.2,53.6,134.9,53.9,135.5,54.7L135.5,54.7z M131.2,57.6c0,0.8,0.2,1.5,0.5,2.1c0.3,0.6,0.9,0.9,1.6,0.9c0.6,0,1-0.1,1.3-0.4
				c0.3-0.3,0.6-0.7,0.7-1.1c0.1-0.4,0.2-0.9,0.2-1.4c0-0.6-0.1-1.1-0.3-1.5c-0.2-0.5-0.4-0.8-0.8-1c-0.3-0.2-0.7-0.4-1.1-0.4
				c-0.5,0-0.9,0.1-1.2,0.4c-0.3,0.3-0.6,0.7-0.7,1.1C131.3,56.7,131.3,57.2,131.2,57.6z"/>
			<path class="st0" d="M138,57.7c0-0.8,0.2-1.5,0.5-2.1c0.3-0.6,0.7-1.1,1.3-1.5c0.5-0.4,1.1-0.5,1.8-0.5c0.7,0,1.3,0.2,1.9,0.6
				c0.5,0.4,0.9,0.9,1.2,1.5c0.3,0.6,0.4,1.3,0.4,2c0,0.7-0.1,1.4-0.4,2c-0.3,0.6-0.7,1.1-1.2,1.5c-0.5,0.4-1.1,0.6-1.9,0.6
				c-0.7,0-1.3-0.2-1.9-0.6c-0.5-0.4-0.9-0.9-1.2-1.5C138.1,59.1,138,58.4,138,57.7z M139.3,57.7c0,0.8,0.2,1.4,0.5,2
				c0.4,0.6,0.9,0.9,1.6,0.9c0.5,0,0.9-0.1,1.2-0.4c0.3-0.3,0.6-0.6,0.7-1.1c0.2-0.4,0.2-0.9,0.3-1.5c0-0.5-0.1-1-0.2-1.5
				c-0.2-0.4-0.4-0.8-0.7-1.1c-0.3-0.3-0.7-0.4-1.2-0.4c-0.5,0-0.9,0.1-1.2,0.4c-0.3,0.3-0.6,0.6-0.8,1.1
				C139.4,56.6,139.3,57.1,139.3,57.7z"/>
			<path class="st0" d="M146.4,54.3c0-0.2,0.1-0.4,0.2-0.5c0.1-0.1,0.3-0.2,0.5-0.2c0.2,0,0.3,0.1,0.5,0.2c0.1,0.1,0.2,0.3,0.2,0.5
				v0.3l0,0c0.3-0.3,0.6-0.6,1-0.8c0.4-0.2,0.8-0.3,1.2-0.3c0.5,0,1,0.1,1.4,0.3c0.4,0.2,0.8,0.6,1,1c0.3,0.5,0.4,1,0.4,1.7v4.5
				c0,0.2-0.1,0.4-0.2,0.5c-0.1,0.1-0.3,0.2-0.5,0.2c-0.2,0-0.3-0.1-0.5-0.2c-0.1-0.1-0.2-0.3-0.2-0.5v-4.4c0-0.6-0.2-1.1-0.5-1.4
				c-0.4-0.3-0.8-0.5-1.3-0.5c-0.3,0-0.6,0.1-0.9,0.2c-0.3,0.1-0.5,0.4-0.7,0.7c-0.2,0.3-0.3,0.6-0.3,1.1v4.4c0,0.2-0.1,0.4-0.2,0.5
				c-0.1,0.1-0.3,0.2-0.4,0.2c-0.2,0-0.3-0.1-0.5-0.2c-0.1-0.1-0.2-0.3-0.2-0.5V54.3z"/>
			<path class="st0" d="M159.7,54.7v-3.9c0-0.2,0.1-0.4,0.2-0.5c0.1-0.1,0.3-0.2,0.5-0.2c0.2,0,0.4,0.1,0.5,0.2
				c0.1,0.1,0.2,0.3,0.2,0.5v10.3c0,0.2-0.1,0.4-0.2,0.5c-0.1,0.1-0.3,0.2-0.5,0.2c-0.2,0-0.3-0.1-0.4-0.2c-0.1-0.1-0.2-0.3-0.2-0.5
				v-0.4h0c-0.1,0.3-0.4,0.5-0.7,0.7c-0.3,0.2-0.8,0.3-1.3,0.3c-0.7,0-1.3-0.2-1.8-0.5c-0.5-0.3-0.9-0.8-1.2-1.4
				c-0.3-0.6-0.4-1.3-0.5-2.1c0-0.6,0.1-1.1,0.2-1.6c0.2-0.5,0.4-0.9,0.7-1.3c0.3-0.4,0.7-0.7,1.1-0.9c0.4-0.2,0.9-0.3,1.4-0.3
				C158.4,53.6,159.1,53.9,159.7,54.7L159.7,54.7z M155.4,57.6c0,0.8,0.2,1.5,0.5,2.1c0.3,0.6,0.9,0.9,1.6,0.9c0.6,0,1-0.1,1.3-0.4
				c0.3-0.3,0.6-0.7,0.7-1.1c0.1-0.4,0.2-0.9,0.2-1.4c0-0.6-0.1-1.1-0.3-1.5c-0.2-0.5-0.4-0.8-0.8-1c-0.3-0.2-0.7-0.4-1.1-0.4
				c-0.5,0-0.9,0.1-1.2,0.4c-0.3,0.3-0.6,0.7-0.7,1.1C155.5,56.7,155.4,57.2,155.4,57.6z"/>
			<path class="st0" d="M162,57.6c0-0.7,0.2-1.3,0.5-1.9c0.3-0.6,0.7-1.1,1.2-1.5c0.5-0.4,1.1-0.6,1.8-0.6c0.7,0,1.3,0.2,1.8,0.6
				c0.5,0.4,0.9,0.9,1.2,1.5c0.3,0.6,0.4,1.3,0.4,1.9c0,0.4-0.2,0.6-0.7,0.6h-5c0,0.5,0.1,1,0.3,1.3c0.2,0.4,0.5,0.6,0.9,0.8
				c0.4,0.2,0.8,0.3,1.2,0.3c0.8,0,1.5-0.3,2.1-0.8c0.2-0.2,0.4-0.2,0.5-0.2c0.1,0,0.3,0.1,0.3,0.2c0.1,0.1,0.1,0.2,0.1,0.4
				c0,0.2-0.1,0.3-0.2,0.5c-0.3,0.3-0.7,0.6-1.2,0.8c-0.5,0.2-1.1,0.4-1.7,0.4c-0.6,0-1.2-0.1-1.7-0.4c-0.5-0.2-0.9-0.6-1.2-1
				c-0.3-0.4-0.5-0.8-0.6-1.3C162.1,58.6,162,58.2,162,57.6C162,57.6,162,57.6,162,57.6C162,57.6,162,57.6,162,57.6z M163.3,57.2
				h4.4c0-0.7-0.2-1.3-0.6-1.8c-0.4-0.4-0.9-0.7-1.5-0.7c-0.7,0-1.2,0.2-1.6,0.6C163.6,55.8,163.4,56.4,163.3,57.2z"/>
			<path class="st0" d="M179.4,54.3c0,0.1,0.1,0.2,0.1,0.3c0,0.2-0.1,0.3-0.2,0.4c-0.1,0.1-0.2,0.2-0.4,0.2c0,0-0.2-0.1-0.4-0.2
				c-0.3-0.1-0.5-0.1-0.6-0.2c-0.2,0-0.3-0.1-0.5-0.1c-0.5,0-0.9,0.1-1.2,0.4c-0.3,0.3-0.6,0.6-0.8,1.1c-0.2,0.4-0.3,0.9-0.3,1.4
				c0,0.7,0.2,1.4,0.5,2c0.3,0.6,0.8,1,1.6,1c0.1,0,0.2,0,0.2,0c0.1,0,0.2,0,0.4,0c0.1,0,0.2-0.1,0.3-0.1c0.1,0,0.2-0.1,0.3-0.1
				c0.1-0.1,0.2-0.1,0.3-0.1c0.1-0.1,0.2-0.1,0.3-0.1c0.1,0,0.3,0.1,0.4,0.2c0.1,0.1,0.1,0.2,0.1,0.4c0,0.4-0.2,0.7-0.7,0.8
				c-0.5,0.2-0.9,0.2-1.4,0.2c-0.7,0-1.4-0.2-1.9-0.5c-0.5-0.3-1-0.8-1.2-1.4c-0.3-0.6-0.4-1.2-0.5-2c0-0.6,0.1-1.1,0.2-1.6
				c0.1-0.5,0.3-1,0.6-1.4c0.3-0.4,0.7-0.7,1.1-0.9c0.5-0.2,1-0.4,1.6-0.4c0.5,0,1,0.1,1.4,0.2C179,53.9,179.3,54.1,179.4,54.3z"/>
			<path class="st0" d="M180.6,57.7c0-0.8,0.2-1.5,0.5-2.1c0.3-0.6,0.7-1.1,1.3-1.5c0.5-0.4,1.1-0.5,1.8-0.5c0.7,0,1.3,0.2,1.9,0.6
				c0.5,0.4,0.9,0.9,1.2,1.5c0.3,0.6,0.4,1.3,0.4,2c0,0.7-0.1,1.4-0.4,2c-0.3,0.6-0.7,1.1-1.2,1.5c-0.5,0.4-1.2,0.6-1.9,0.6
				c-0.7,0-1.3-0.2-1.9-0.6c-0.5-0.4-0.9-0.9-1.2-1.5C180.7,59.1,180.6,58.4,180.6,57.7z M181.9,57.7c0,0.8,0.2,1.4,0.5,2
				c0.4,0.6,0.9,0.9,1.6,0.9c0.5,0,0.9-0.1,1.2-0.4c0.3-0.3,0.6-0.6,0.7-1.1c0.2-0.4,0.2-0.9,0.3-1.5c0-0.5-0.1-1-0.2-1.5
				c-0.2-0.4-0.4-0.8-0.7-1.1c-0.3-0.3-0.7-0.4-1.2-0.4c-0.5,0-0.9,0.1-1.2,0.4c-0.3,0.3-0.6,0.6-0.8,1.1
				C182,56.6,181.9,57.1,181.9,57.7z"/>
			<path class="st0" d="M189,54.2c0-0.2,0.1-0.3,0.2-0.4c0.1-0.1,0.3-0.2,0.5-0.2c0.2,0,0.3,0.1,0.5,0.2c0.1,0.1,0.2,0.3,0.2,0.5
				v0.3h0c0.5-0.6,1.2-1,2.1-1c0.9,0,1.6,0.5,2.1,1.3c0.4-0.5,0.7-0.9,1.2-1c0.4-0.2,0.9-0.3,1.4-0.3c0.5,0,0.9,0.1,1.4,0.4
				c0.4,0.2,0.7,0.6,1,1c0.2,0.4,0.4,0.9,0.4,1.5v4.6c0,0.2-0.1,0.4-0.2,0.5c-0.1,0.1-0.3,0.2-0.5,0.2c-0.2,0-0.3-0.1-0.4-0.2
				c-0.1-0.1-0.2-0.3-0.2-0.5v-4.5c0-0.4-0.1-0.7-0.2-1c-0.1-0.3-0.3-0.5-0.6-0.6c-0.3-0.1-0.5-0.2-0.8-0.2c-0.5,0-0.9,0.1-1.3,0.4
				c-0.3,0.3-0.5,0.8-0.5,1.4v4.5c0,0.2-0.1,0.3-0.2,0.5c-0.1,0.1-0.3,0.2-0.5,0.2c-0.2,0-0.3-0.1-0.4-0.2c-0.1-0.1-0.2-0.3-0.2-0.4
				v-4.5c0-0.6-0.2-1.1-0.5-1.4c-0.3-0.3-0.7-0.5-1.2-0.5c-0.3,0-0.6,0.1-0.9,0.2c-0.3,0.1-0.5,0.3-0.6,0.6c-0.2,0.3-0.2,0.6-0.2,1
				v4.6c0,0.2-0.1,0.4-0.2,0.5c-0.1,0.1-0.3,0.2-0.5,0.2c-0.2,0-0.3-0.1-0.4-0.2c-0.1-0.1-0.2-0.3-0.2-0.5V54.2z"/>
			<path class="st0" d="M203,60.7v3.5c0,0.3-0.1,0.4-0.2,0.6c-0.1,0.1-0.3,0.2-0.5,0.2c-0.2,0-0.3-0.1-0.5-0.2
				c-0.1-0.1-0.2-0.3-0.2-0.5v-10c0-0.2,0.1-0.4,0.2-0.5c0.1-0.1,0.3-0.2,0.4-0.2c0.2,0,0.3,0.1,0.5,0.2c0.1,0.1,0.2,0.3,0.2,0.5
				v0.4h0c0.4-0.7,1-1.1,2-1.1c0.5,0,1,0.1,1.4,0.3c0.4,0.2,0.8,0.5,1.1,0.8c0.3,0.4,0.5,0.8,0.7,1.3c0.2,0.5,0.3,1,0.3,1.6
				c0,0.8-0.1,1.5-0.4,2.1c-0.3,0.6-0.7,1.1-1.2,1.5c-0.5,0.4-1.1,0.5-1.8,0.5C204.3,61.8,203.6,61.4,203,60.7L203,60.7z
				 M207.3,57.7c0-0.5-0.1-1-0.2-1.4c-0.1-0.4-0.4-0.8-0.7-1.1c-0.3-0.3-0.7-0.4-1.2-0.4c-0.6,0-1,0.1-1.3,0.4
				c-0.3,0.3-0.6,0.6-0.7,1.1c-0.1,0.4-0.2,0.9-0.2,1.4c0,0.9,0.2,1.6,0.6,2.2c0.4,0.5,0.9,0.8,1.6,0.8c0,0,0.1,0,0.1,0
				c0.4,0,0.8-0.2,1.1-0.4c0.3-0.3,0.5-0.6,0.7-1C207.2,58.7,207.3,58.2,207.3,57.7z"/>
			<path class="st0" d="M209.8,54.3c0-0.2,0.1-0.4,0.2-0.5c0.1-0.1,0.3-0.2,0.5-0.2c0.2,0,0.3,0.1,0.5,0.2c0.1,0.1,0.2,0.3,0.2,0.5
				V55h0c0.2-0.3,0.5-0.7,0.8-0.9c0.3-0.3,0.7-0.4,1-0.4c0.2,0,0.4,0.1,0.5,0.2c0.2,0.1,0.2,0.3,0.2,0.5c0,0.2-0.1,0.4-0.2,0.5
				c-0.2,0.1-0.4,0.2-0.7,0.3c-0.3,0.1-0.5,0.1-0.6,0.2c-0.7,0.4-1.1,1.1-1.1,2v3.9c0,0.2-0.1,0.4-0.2,0.5c-0.1,0.1-0.3,0.2-0.4,0.2
				c-0.2,0-0.3-0.1-0.5-0.2c-0.1-0.1-0.2-0.3-0.2-0.5V54.3z"/>
			<path class="st0" d="M219.7,54.7v-0.4c0-0.2,0.1-0.3,0.2-0.5c0.1-0.1,0.3-0.2,0.4-0.2c0.2,0,0.3,0.1,0.4,0.2
				c0.1,0.1,0.2,0.3,0.2,0.5v6.8c0,0.2-0.1,0.4-0.2,0.5c-0.1,0.1-0.3,0.2-0.4,0.2c-0.2,0-0.3-0.1-0.4-0.2c-0.1-0.1-0.2-0.3-0.2-0.4
				v-0.6h0c-0.6,0.8-1.3,1.2-2.1,1.2c-0.7,0-1.3-0.2-1.8-0.5c-0.6-0.3-1-0.8-1.3-1.4c-0.3-0.6-0.5-1.3-0.5-2.1
				c0-0.9,0.2-1.7,0.5-2.3c0.3-0.6,0.8-1.1,1.3-1.4c0.5-0.3,1.1-0.5,1.6-0.5c0.5,0,0.9,0.1,1.2,0.3C219,54,219.4,54.3,219.7,54.7
				L219.7,54.7z M215.3,57.7c0,0.5,0.1,1,0.2,1.4c0.2,0.4,0.4,0.8,0.7,1.1c0.3,0.3,0.7,0.4,1.2,0.4c0.8,0,1.4-0.3,1.7-0.9
				c0.3-0.6,0.5-1.3,0.5-2.1c0-0.6-0.1-1.1-0.3-1.6c-0.2-0.4-0.4-0.8-0.8-1c-0.3-0.2-0.7-0.4-1.1-0.4h0c-0.7,0-1.2,0.3-1.6,0.9
				C215.5,56.1,215.3,56.8,215.3,57.7z"/>
			<path class="st0" d="M222.4,54.3c0-0.2,0.1-0.4,0.2-0.5c0.1-0.1,0.3-0.2,0.5-0.2c0.2,0,0.3,0.1,0.5,0.2c0.1,0.1,0.2,0.3,0.2,0.5
				V55h0c0.2-0.3,0.5-0.7,0.8-0.9c0.3-0.3,0.7-0.4,1-0.4c0.2,0,0.4,0.1,0.5,0.2c0.2,0.1,0.2,0.3,0.2,0.5c0,0.2-0.1,0.4-0.2,0.5
				c-0.2,0.1-0.4,0.2-0.7,0.3c-0.3,0.1-0.5,0.1-0.6,0.2c-0.7,0.4-1.1,1.1-1.1,2v3.9c0,0.2-0.1,0.4-0.2,0.5c-0.1,0.1-0.3,0.2-0.4,0.2
				c-0.2,0-0.3-0.1-0.5-0.2c-0.1-0.1-0.2-0.3-0.2-0.5V54.3z"/>
			<path class="st0" d="M230,57.6c0-0.7,0.2-1.3,0.5-1.9c0.3-0.6,0.7-1.1,1.2-1.5c0.5-0.4,1.1-0.6,1.8-0.6c0.7,0,1.3,0.2,1.8,0.6
				c0.5,0.4,0.9,0.9,1.2,1.5c0.3,0.6,0.4,1.3,0.4,1.9c0,0.4-0.2,0.6-0.7,0.6h-5c0,0.5,0.1,1,0.3,1.3c0.2,0.4,0.5,0.6,0.9,0.8
				c0.4,0.2,0.8,0.3,1.2,0.3c0.8,0,1.5-0.3,2.1-0.8c0.2-0.2,0.4-0.2,0.5-0.2c0.1,0,0.3,0.1,0.3,0.2c0.1,0.1,0.1,0.2,0.1,0.4
				c0,0.2-0.1,0.3-0.2,0.5c-0.3,0.3-0.7,0.6-1.2,0.8c-0.5,0.2-1.1,0.4-1.7,0.4c-0.6,0-1.2-0.1-1.7-0.4c-0.5-0.2-0.9-0.6-1.2-1
				c-0.3-0.4-0.5-0.8-0.6-1.3C230.1,58.6,230,58.2,230,57.6C230,57.6,230,57.6,230,57.6C230,57.6,230,57.6,230,57.6z M231.3,57.2
				h4.4c0-0.7-0.2-1.3-0.6-1.8c-0.4-0.4-0.9-0.7-1.5-0.7c-0.7,0-1.2,0.2-1.6,0.6C231.6,55.8,231.4,56.4,231.3,57.2z"/>
			<path class="st0" d="M238.4,60.9c-0.2-0.1-0.3-0.4-0.4-0.6c0-0.2,0.1-0.3,0.2-0.4c0.1-0.1,0.2-0.2,0.4-0.2c0.1,0,0.3,0,0.4,0.1
				c0.1,0.1,0.3,0.2,0.5,0.3c0.2,0.1,0.3,0.2,0.4,0.3c0.3,0.2,0.7,0.3,1.1,0.3c0.4,0,0.8-0.1,1.1-0.3c0.3-0.2,0.5-0.5,0.5-0.8
				c0-0.4-0.2-0.7-0.6-0.9c-0.2-0.1-0.6-0.3-1.2-0.5c-0.6-0.2-1-0.4-1.3-0.6c-0.3-0.2-0.6-0.4-0.8-0.7c-0.2-0.3-0.4-0.6-0.4-1.1
				c0-0.4,0.1-0.8,0.3-1.1c0.2-0.3,0.5-0.6,0.9-0.8c0.4-0.2,0.8-0.3,1.4-0.3c0.5,0,1,0.1,1.4,0.2c0.5,0.2,0.8,0.3,1,0.5
				c0.2,0.2,0.3,0.4,0.3,0.6c0,0.1-0.1,0.3-0.2,0.4c-0.1,0.1-0.3,0.2-0.4,0.2c-0.2,0-0.4-0.2-0.7-0.3c-0.3-0.2-0.6-0.3-0.7-0.4
				c-0.2-0.1-0.3-0.1-0.6-0.1c-0.5,0-0.8,0.1-1.1,0.3c-0.2,0.2-0.4,0.4-0.4,0.7c0,0.2,0.2,0.5,0.3,0.6c0.2,0.2,0.4,0.3,0.6,0.4
				c0.2,0.1,0.5,0.2,0.9,0.3c0.3,0.1,0.6,0.2,0.7,0.3c0.6,0.2,1,0.5,1.3,0.8c0.3,0.3,0.4,0.7,0.4,1.2c0,0.4-0.1,0.8-0.3,1.1
				c-0.2,0.4-0.5,0.6-1,0.9c-0.4,0.2-1,0.3-1.6,0.3C240,61.8,239.1,61.5,238.4,60.9z"/>
			<path class="st0" d="M254.3,54.7v-0.4c0-0.2,0.1-0.3,0.2-0.5c0.1-0.1,0.3-0.2,0.4-0.2c0.2,0,0.3,0.1,0.4,0.2
				c0.1,0.1,0.2,0.3,0.2,0.5v6.8c0,0.2-0.1,0.4-0.2,0.5c-0.1,0.1-0.3,0.2-0.4,0.2c-0.2,0-0.3-0.1-0.4-0.2c-0.1-0.1-0.2-0.3-0.2-0.4
				v-0.6h0c-0.6,0.8-1.3,1.2-2.1,1.2c-0.7,0-1.3-0.2-1.8-0.5c-0.6-0.3-1-0.8-1.3-1.4c-0.3-0.6-0.5-1.3-0.5-2.1
				c0-0.9,0.2-1.7,0.5-2.3c0.3-0.6,0.8-1.1,1.3-1.4c0.5-0.3,1.1-0.5,1.6-0.5c0.5,0,0.9,0.1,1.2,0.3C253.6,54,253.9,54.3,254.3,54.7
				L254.3,54.7z M249.9,57.7c0,0.5,0.1,1,0.2,1.4c0.2,0.4,0.4,0.8,0.7,1.1c0.3,0.3,0.7,0.4,1.2,0.4c0.8,0,1.4-0.3,1.7-0.9
				c0.3-0.6,0.5-1.3,0.5-2.1c0-0.6-0.1-1.1-0.3-1.6c-0.2-0.4-0.4-0.8-0.8-1c-0.3-0.2-0.7-0.4-1.1-0.4h0c-0.7,0-1.2,0.3-1.6,0.9
				C250.1,56.1,249.9,56.8,249.9,57.7z"/>
			<path class="st0" d="M257,50.8c0-0.2,0.1-0.4,0.2-0.5c0.1-0.1,0.3-0.2,0.5-0.2c0.2,0,0.3,0.1,0.5,0.2c0.1,0.1,0.2,0.3,0.2,0.5
				v3.8l0,0c0.2-0.3,0.5-0.6,0.9-0.8c0.4-0.2,0.8-0.3,1.2-0.3c0.5,0,1,0.1,1.4,0.4c0.4,0.3,0.8,0.6,1,1.1c0.2,0.5,0.4,0.9,0.4,1.5
				v4.5c0,0.2-0.1,0.4-0.2,0.5c-0.1,0.1-0.3,0.2-0.5,0.2c-0.2,0-0.3-0.1-0.5-0.2c-0.1-0.1-0.2-0.3-0.2-0.5v-4.4c0-0.6-0.2-1-0.5-1.4
				c-0.3-0.4-0.8-0.6-1.3-0.6c-0.3,0-0.6,0.1-0.9,0.2c-0.3,0.1-0.5,0.4-0.7,0.7c-0.2,0.3-0.3,0.7-0.3,1.1v4.4c0,0.2-0.1,0.4-0.2,0.5
				c-0.1,0.1-0.3,0.2-0.5,0.2c-0.2,0-0.3-0.1-0.5-0.2c-0.1-0.1-0.2-0.3-0.2-0.5V50.8z"/>
			<path class="st0" d="M264.7,57.7c0-0.8,0.1-1.5,0.5-2.1c0.3-0.6,0.7-1.1,1.3-1.5c0.5-0.4,1.1-0.5,1.8-0.5c0.7,0,1.3,0.2,1.9,0.6
				c0.5,0.4,0.9,0.9,1.2,1.5c0.3,0.6,0.4,1.3,0.4,2c0,0.7-0.1,1.4-0.4,2c-0.3,0.6-0.7,1.1-1.2,1.5c-0.5,0.4-1.2,0.6-1.9,0.6
				c-0.7,0-1.3-0.2-1.9-0.6c-0.5-0.4-0.9-0.9-1.2-1.5C264.8,59.1,264.7,58.4,264.7,57.7z M266,57.7c0,0.8,0.2,1.4,0.5,2
				c0.4,0.6,0.9,0.9,1.6,0.9c0.5,0,0.9-0.1,1.2-0.4c0.3-0.3,0.6-0.6,0.7-1.1c0.2-0.4,0.2-0.9,0.3-1.5c0-0.5-0.1-1-0.2-1.5
				c-0.2-0.4-0.4-0.8-0.7-1.1c-0.3-0.3-0.7-0.4-1.2-0.4c-0.5,0-0.9,0.1-1.2,0.4c-0.3,0.3-0.6,0.6-0.8,1.1
				C266.1,56.6,266,57.1,266,57.7z"/>
			<path class="st0" d="M273.1,54.3c0-0.2,0.1-0.4,0.2-0.5c0.1-0.1,0.3-0.2,0.5-0.2c0.2,0,0.3,0.1,0.5,0.2c0.1,0.1,0.2,0.3,0.2,0.5
				V55h0c0.2-0.3,0.5-0.7,0.8-0.9c0.3-0.3,0.7-0.4,1-0.4c0.2,0,0.4,0.1,0.5,0.2s0.2,0.3,0.2,0.5c0,0.2-0.1,0.4-0.2,0.5
				c-0.2,0.1-0.4,0.2-0.7,0.3c-0.3,0.1-0.5,0.1-0.6,0.2c-0.7,0.4-1.1,1.1-1.1,2v3.9c0,0.2-0.1,0.4-0.2,0.5c-0.1,0.1-0.3,0.2-0.4,0.2
				c-0.2,0-0.3-0.1-0.5-0.2c-0.1-0.1-0.2-0.3-0.2-0.5V54.3z"/>
			<path class="st0" d="M277.7,54.3c0-0.2,0.1-0.4,0.2-0.5c0.1-0.1,0.3-0.2,0.5-0.2c0.2,0,0.3,0.1,0.5,0.2c0.1,0.1,0.2,0.3,0.2,0.5
				V55h0c0.2-0.3,0.5-0.7,0.8-0.9c0.3-0.3,0.7-0.4,1-0.4c0.2,0,0.4,0.1,0.5,0.2c0.2,0.1,0.2,0.3,0.2,0.5c0,0.2-0.1,0.4-0.2,0.5
				c-0.2,0.1-0.4,0.2-0.7,0.3c-0.3,0.1-0.5,0.1-0.6,0.2c-0.7,0.4-1.1,1.1-1.1,2v3.9c0,0.2-0.1,0.4-0.2,0.5c-0.1,0.1-0.3,0.2-0.4,0.2
				c-0.2,0-0.3-0.1-0.5-0.2c-0.1-0.1-0.2-0.3-0.2-0.5V54.3z"/>
			<path class="st0" d="M287.7,54.7v-0.4c0-0.2,0.1-0.3,0.2-0.5c0.1-0.1,0.3-0.2,0.4-0.2c0.2,0,0.3,0.1,0.4,0.2
				c0.1,0.1,0.2,0.3,0.2,0.5v6.8c0,0.2-0.1,0.4-0.2,0.5s-0.3,0.2-0.4,0.2c-0.2,0-0.3-0.1-0.4-0.2c-0.1-0.1-0.2-0.3-0.2-0.4v-0.6h0
				c-0.6,0.8-1.3,1.2-2.1,1.2c-0.7,0-1.3-0.2-1.8-0.5c-0.6-0.3-1-0.8-1.3-1.4c-0.3-0.6-0.5-1.3-0.5-2.1c0-0.9,0.2-1.7,0.5-2.3
				c0.3-0.6,0.8-1.1,1.3-1.4c0.5-0.3,1.1-0.5,1.6-0.5c0.5,0,0.9,0.1,1.2,0.3C287,54,287.3,54.3,287.7,54.7L287.7,54.7z M283.3,57.7
				c0,0.5,0.1,1,0.2,1.4c0.2,0.4,0.4,0.8,0.7,1.1c0.3,0.3,0.7,0.4,1.2,0.4c0.8,0,1.4-0.3,1.7-0.9c0.3-0.6,0.5-1.3,0.5-2.1
				c0-0.6-0.1-1.1-0.3-1.6c-0.2-0.4-0.4-0.8-0.8-1c-0.3-0.2-0.7-0.4-1.1-0.4h0c-0.7,0-1.2,0.3-1.6,0.9
				C283.5,56.1,283.3,56.8,283.3,57.7z"/>
			<path class="st0" d="M290.4,54.3c0-0.2,0.1-0.4,0.2-0.5c0.1-0.1,0.3-0.2,0.5-0.2c0.2,0,0.3,0.1,0.5,0.2c0.1,0.1,0.2,0.3,0.2,0.5
				V55h0c0.2-0.3,0.5-0.7,0.8-0.9c0.3-0.3,0.7-0.4,1-0.4c0.2,0,0.4,0.1,0.5,0.2c0.2,0.1,0.2,0.3,0.2,0.5c0,0.2-0.1,0.4-0.2,0.5
				c-0.2,0.1-0.4,0.2-0.7,0.3c-0.3,0.1-0.5,0.1-0.6,0.2c-0.7,0.4-1.1,1.1-1.1,2v3.9c0,0.2-0.1,0.4-0.2,0.5c-0.1,0.1-0.3,0.2-0.4,0.2
				c-0.2,0-0.3-0.1-0.5-0.2c-0.1-0.1-0.2-0.3-0.2-0.5V54.3z"/>
		</g>
	</g>
	<g>
		<path class="st1" d="M148.1,12.5c2-0.5,4.1,0.7,4.6,2.6c0.6,2-0.7,4.1-2.6,4.6c-2,0.6-4-0.7-4.6-2.6C145,15.1,146.1,13,148.1,12.5
			L148.1,12.5z"/>
		<path class="st0" d="M145,23.3c-0.1,3.8,0.1,18.5,0.2,22.4c0,0.7,0.4,1.2,1.1,1.2c2,0,6.4-1.7,6.5-5.9c0-5.9,0.2-14.7,0.2-17.6
			c0-0.5-0.4-1-1-1.1c-1.5-0.1-4.6-0.2-6.1-0.1C145.5,22.2,145,22.6,145,23.3L145,23.3z"/>
		<path class="st0" d="M243.8,34.5c0-3.7,2.1-5.7,5.6-5.7c2,0,3.9,1.2,5,1.8c0.5,0.3,1,0.2,1.3-0.4c0.6-1.3,1.3-4,1.5-5.2
			c0-0.4,0-0.7-0.3-0.9c-0.9-0.7-3.9-2.2-8.1-2.2c-7.9,0-12.6,6-12.6,12.2c0,6.1,3.6,12.7,12.7,12.7c2,0,3.8-0.5,5.3-1.2
			c1.7-1.4,2.2-3.9,1.3-5.9c-0.5-0.8-1-1.4-1.2-1.4c-0.6,0.3-2.9,1.8-5.2,1.8C247.1,40,243.8,39.2,243.8,34.5L243.8,34.5z"/>
		<path class="st0" d="M203.3,31.8c0-2.5,1.7-4.4,4.2-4.4c2.3,0,3.6,1.9,3.4,4.3L203.3,31.8z M203.3,36.3c2,0.1,6.8,0.1,10.4,0
			c2.2-0.1,4.3-2.2,4.2-4.4c-0.1-5.3-4.1-9.9-10.4-9.9c-7.6,0-11.7,6.1-11.7,12.7c0,6.2,3.5,12.1,12.4,12.1c1.7,0,3.3-0.3,4.7-0.7
			c2.6-0.8,3.1-4.1,2-6.2c-0.2-0.4-0.5-1.1-1.7-0.5c-1.2,0.6-2.7,1.1-4.7,1.1C205.2,40.5,203.3,38.9,203.3,36.3L203.3,36.3z"/>
		<path class="st0" d="M164.2,21.8c-4.5,0.4-8.8,3.2-8.8,10.6c0,0.6,0,1.3,0,2.2c0,3.5,0.2,8.6,0.3,11.2c0,0.4,0,1.2,0.9,1.3
			c1.8,0.1,7-0.7,7-5.3c0-3.3-0.1-7.2-0.1-8.5c0-2.5,0.7-4.3,3.3-4.3c2.7,0,3.5,2.7,3.5,4.2c0,0.7,0,1.4,0,2.3
			c0,3.4,0.1,8.1,0.2,10.5c0,0.4,0.1,0.9,0.7,0.9c1.8,0.1,6.9-0.7,7-5.5c0-1.1,0-2.3,0-3.5l0,0c0-0.8,0-1.7,0-2.5c0-0.8,0-1.6,0-2.3
			c0-1.5,0.8-4.2,3.5-4.2c2.6,0,3.3,1.8,3.3,4.3c0,2-0.2,10.6-0.2,13.2c0,0.4,0.1,0.8,0.7,0.8c2.4,0.1,7.2-1.7,7.3-5.8
			c0-3.3,0.1-7.1,0.1-9c0-7-3.8-9.9-8-10.5c-4.1-0.6-8.1,0.4-10.9,3.6C171.7,22.5,168.2,21.5,164.2,21.8L164.2,21.8z"/>
		<path class="st0" d="M299.4,23c-4.8-1.7-11-0.7-13.3,4.2c-0.7,1.6-1,3.2-1,4.9c0,0.2,0,0.3,0,0.5c0,3,0.1,9.9,0.3,13.1
			c0,0.4,0,1.2,0.8,1.3c1.8,0.1,6.8-0.7,6.8-5.2c0-3.3-0.1-7.1-0.1-8.3c0-2.4,0.7-4.2,3.3-4.2c0.6,0,1.2,0.1,1.8,0.5
			c0.3,0.2,0.5,0.3,0.9,0c1.5-1,2-3.1,2.1-4.6C301,24.4,300.5,23.4,299.4,23L299.4,23z"/>
		<path class="st0" d="M234.6,23c-4.8-1.7-11-0.7-13.3,4.2c-0.7,1.6-0.9,3.2-1,4.9c0,0.2,0,0.3,0,0.5c0,3,0.2,9.9,0.3,13.1
			c0,0.4,0,1.2,0.8,1.3c1.8,0.1,6.9-0.7,6.8-5.2c0-3.3-0.1-7.1-0.1-8.3c0-2.4,0.6-4.2,3.2-4.2c0.6,0,1.2,0.1,1.8,0.5
			c0.3,0.2,0.5,0.3,0.9,0c1.5-1,2-3.1,2.1-4.6C236.3,24.4,235.7,23.4,234.6,23L234.6,23z"/>
		<path class="st0" d="M88.4,23c-4.8-1.7-11-0.7-13.3,4.2c-0.7,1.6-1,3.2-1,4.9c0,0.2,0,0.3,0,0.5c0,3,0.1,9.9,0.3,13.1
			c0,0.4,0,1.2,0.8,1.3C77,47,82,46.2,82,41.7c0-3.3-0.1-7.1-0.1-8.3c0-2.4,0.7-4.2,3.3-4.2c0.6,0,1.2,0.1,1.8,0.5
			c0.3,0.2,0.5,0.3,0.9,0c1.5-1,2-3.1,2.1-4.6C90,24.4,89.5,23.4,88.4,23L88.4,23z"/>
		<path class="st1" d="M117.5,36.6c0,7.9,0.1,15.2,0.1,18.2c0,0.5,0.3,1.3,1,1.5c2.9,0.6,7.1-2.3,7-5.8c0-3-0.1-4.9-0.1-5.7h0
			c1.8,1.5,5.1,2.2,7.9,1.6c2.2-0.6,4.3-2,5.8-3.9c2-2.5,2.8-5.6,2.7-8.6c-0.1-4.9-2.6-8.5-5.9-10.4c-3.6-2.1-8.6-2.1-12.3,0
			c-0.8,0.4-1.6,1-2.3,1.6c-1.3,1.2-2.4,2.6-3.1,4.3C117.3,32.2,117.4,34.9,117.5,36.6L117.5,36.6z M125.2,34.4
			c0,3.1,1.8,5.1,4.7,5.1c2.4,0,4.6-2,4.5-5.3c0-3-1.6-5-4.8-5C127,29.3,125.1,31.1,125.2,34.4L125.2,34.4z"/>
		<path class="st1" d="M282.3,33.2L282.3,33.2L282.3,33.2L282.3,33.2c0-3.3,0-7.8,0-8.6c0-0.5-0.4-1-0.9-1.1c-0.8,0-2-0.1-3.2-0.1
			c-1.6,0-2.2-0.4-3.9-0.9c-3.4-1.2-7.6-0.8-10.6,1c-3.3,2-5.7,5.6-5.7,10.5c0,3.9,1.3,7.6,4.1,10c4,3.5,11.7,4,13.1-2.3v3.5
			c0,0.5,0.2,1.3,0.9,1.3c2.9,0.3,6.3-1.9,6.3-5.2c0-2.5,0-5.2,0-7.7l0,0V33.2z M265.7,33.7L265.7,33.7c0.2-2.9,2-4.5,4.4-4.5
			c2.9,0,4.4,1.8,4.6,4.4v0.1l0,0c0,0.2,0,0.4,0,0.6c0,3.2-2.1,5.2-4.4,5.2c-2.9,0-4.6-2.1-4.6-5.2l0,0
			C265.7,34.1,265.7,33.9,265.7,33.7L265.7,33.7z"/>
		<path class="st1" d="M114.6,33.3L114.6,33.3L114.6,33.3L114.6,33.3c0-3.3,0-7.8,0-8.6c0-0.5-0.4-1-0.9-1.1c-0.8,0-2-0.1-3.2-0.1
			c-1.6,0-2.2-0.4-3.9-0.9c-3.4-1.2-7.6-0.8-10.6,1.1c-3.3,2-5.7,5.6-5.7,10.5c0,3.9,1.3,7.7,4.1,10c4,3.5,11.7,4,13.1-2.3v3.5
			c0,0.5,0.2,1.3,0.9,1.3c2.9,0.3,6.3-1.9,6.3-5.2c0-2.6,0-5.2,0-7.7l0,0V33.3z M98.1,33.7L98.1,33.7c0.2-2.9,2-4.5,4.4-4.5
			c2.9,0,4.4,1.8,4.6,4.4v0.1l0,0c0,0.2,0,0.4,0,0.5c0,3.3-2.1,5.2-4.4,5.2c-2.9,0-4.6-2.1-4.6-5.1l0,0
			C98.1,34.1,98.1,33.9,98.1,33.7L98.1,33.7z"/>
	</g>
	<path class="st2" d="M61.6,46.2c1.8,0.8,3.3,2.5,3.9,4.6c1,3.8-1.3,7.7-5,8.6c-3.7,1-7.6-1.2-8.6-4.9c-0.7,0.3-1.6,0.6-2.4,0.8
		c-0.8,0.2-1.7,0.4-2.5,0.6c0.9,3.7-1.3,7.5-5,8.6c-3.7,1-7.6-1.3-8.6-5c-0.5-1.8-0.2-3.6,0.6-5.1c-7.1-2.6-13.9-7.5-19-12.8
		c-1.2-1.3-2.3-2.6-3.4-3.9c-0.8-1-1.7-2-2.6-3c-0.3-0.4-0.8-0.9-1.2-1.3c-0.3,0-0.8,0.2-1,0.3c-1.3,0.3-2.6,0.1-3.7-0.7
		c-3.1-2.2-2.3-7.1,1.4-8.1c2.5-0.7,4.6-0.9,6.7,0.2c0-0.4,0-0.8,0-1.2c0.2-3.9,1.6-7.6,4.4-10.4c2.6-2.7,5.9-4.4,9.5-5
		c-0.5-0.8-0.9-1.7-1.3-2.6c-0.7-1.5-0.6-3.2,0.7-4.4c0.9-0.9,1.9-1.1,3.1-1.1c1.1,0,2.1-0.1,3.1-0.1c5.3,0,8.3,2.3,9.8,6.6
		c1.2-1.1,2.5-2,4-2.8c3.8-2,8.2-2.8,12.3-1.8c1.4,0.3,2.7,0.8,3.9,1.5c10,5.9,9.3,20.7,6.6,30.4C65.9,38.1,64,42.5,61.6,46.2
		L61.6,46.2z"/>
	<path class="st1" d="M57.6,48.9c2-0.5,4.1,0.7,4.6,2.7c0.6,2-0.7,4-2.6,4.6c-2,0.6-4.1-0.6-4.6-2.6C54.4,51.5,55.6,49.5,57.6,48.9
		L57.6,48.9z"/>
	<path class="st1" d="M39,54c2-0.6,4.1,0.7,4.6,2.7c0.6,2-0.7,4.1-2.6,4.6c-2,0.6-4.1-0.7-4.6-2.6C35.8,56.6,37,54.5,39,54L39,54z"
		/>
	<path class="st1" d="M37.6,10c-0.7-1.9-3.3-3.2-4.1-3.1c1.8,0.8,4.3,2.2,4.6,6.1c-1.7-5-7.9,0-11.4-8.6c-0.4-1.1,0.1-1,0.8-1
		C31.2,3.4,36.4,1.9,37.6,10L37.6,10z"/>
	<path class="st1" d="M14.3,23.8C14.7,12.8,28,7.2,38.5,14.8c3.3-8.3,13.4-12.3,20.2-8.4c8.5,5,7.3,18.7,5.1,26.7
		c-1.5,5.4-4,10.5-7,13.8c-2.2,2.4-4.9,4.3-8.4,5.3c-3.3,0.9-6.7,0.9-10.4,0c-7.9-2-15.6-7.4-20.9-13c-2.5-2.6-6.6-8-7.9-8.9
		c-1.2-0.8-2.6-0.3-3.6,0c-1.4,0.4-2-2-0.5-2.4c1.8-0.5,3.3-1,5.1,0.5c2,1.6,3.4,4,5.9,7.1c4.3,5.2,10.4,9.7,16.3,12.3
		c7.3,3.3,13.9,3.7,19.4,0.4c2.6-1.6,5.7-5.4,6.5-7.2c0.1-0.2,0-0.4-0.2-0.1c-1.8,2.3-4.3,4.9-6.6,6.2c-3.8,2.1-7.7,2.6-11.7,1.8
		C29.8,46.7,13.9,35.5,14.3,23.8L14.3,23.8z"/>
	<path class="st2" d="M37.7,17c-1.9-1.7-4.8-2.7-7.3-3.1c-4.1-0.5-8,0.8-10.6,3.3c-4,3.8-3.6,8.7-1.4,13.2
		c4.1,8.6,18.5,18.7,28.7,16c10.2-2.7,17.6-18.8,16.9-28.3c-0.4-4.9-2.5-9.3-7.9-10.7c-3.5-0.9-7.5,0-10.8,2.5c-2,1.5-4,3.9-4.8,6.3
		C39.9,17.8,39,18.3,37.7,17L37.7,17z"/>
	<g>
		<defs>
			<path id="SVGID_1_" d="M37.7,17c-1.9-1.7-4.8-2.7-7.3-3.1c-4.1-0.5-8,0.8-10.6,3.3c-4,3.8-3.6,8.7-1.4,13.2
				c4.1,8.6,18.5,18.7,28.7,16c10.2-2.7,17.6-18.8,16.9-28.3c-0.4-4.9-2.5-9.3-7.9-10.7c-3.5-0.9-7.5,0-10.8,2.5
				c-2,1.5-4,3.9-4.8,6.3C39.9,17.8,39,18.3,37.7,17L37.7,17z"/>
		</defs>
		<clipPath id="SVGID_2_">
			<use xlink:href="#SVGID_1_"  style="overflow:visible;"/>
		</clipPath>
		<path class="st3" d="M62.4,15.3c-8.8,22.6-39.2,24.2-44.9,13.2c-0.6,5.2,6,11.5,10.6,12.7C42.1,44.8,65.9,32.7,62.4,15.3
			L62.4,15.3z"/>
	</g>
	<g>
		<defs>
			<path id="SVGID_3_" d="M62.4,15.3c-8.8,22.6-39.2,24.2-44.9,13.2c0.2,0.7,0.5,1.3,0.8,2C20,34.1,23.6,38,28,41.1
				C42.1,44.8,65.9,32.7,62.4,15.3L62.4,15.3z"/>
		</defs>
		<clipPath id="SVGID_4_">
			<use xlink:href="#SVGID_3_"  style="overflow:visible;"/>
		</clipPath>
		<polygon class="st4" points="20.5,66.6 42.9,63.6 63.7,43.6 65.3,61.6 50.1,79.9 24.5,72.6 		"/>
		<path class="st5" d="M12.3,50.8c0,0,3.6,8.6,13,8.9c9.4,0.2,14.4-0.6,19.1-3.3c4.8-2.6,10.9-8.3,12.5-11.3c1.6-3,3.2-7.2,3.2-7.2
			l1.1,5.5c0,0-2.6,10.6-5.9,14.2c-3.3,3.6-11,9.4-16.4,9.9c-5.4,0.5-9.8,0.6-11.5,0.2c-1.7-0.4-4.3-0.8-4.3-0.8l-7.1-5.8l-4-7.4
			L12.3,50.8z"/>
	</g>
	<g>
		<defs>
			<path id="SVGID_5_" d="M37.7,17c-1.9-1.7-4.8-2.7-7.3-3.1c-4.1-0.5-8,0.8-10.6,3.3c-4,3.8-3.6,8.7-1.4,13.2
				c4.1,8.6,18.5,18.7,28.7,16c10.2-2.7,17.6-18.8,16.9-28.3c-0.4-4.9-2.5-9.3-7.9-10.7c-3.5-0.9-7.5,0-10.8,2.5
				c-2,1.5-4,3.9-4.8,6.3C39.9,17.8,39,18.3,37.7,17L37.7,17z"/>
		</defs>
		<clipPath id="SVGID_6_">
			<use xlink:href="#SVGID_5_"  style="overflow:visible;"/>
		</clipPath>
		<path class="st6" d="M48.6,6.4c-4.1,1.3-8.6,4.3-9.6,10.4c-7.8-7.4-19-4.1-22.7,2.3c-0.9,1.8-0.2,4,0.4,5.5
			c6.7,16.9,41.9,8.5,45-13.4C62.3,7.4,52.1,5.3,48.6,6.4L48.6,6.4z"/>
	</g>
	<g>
		<defs>
			<path id="SVGID_7_" d="M16.7,24.5c6.6,16.8,41.7,8.5,45-13.2c-1.3-1.8-3.1-3.2-5.7-3.9c-3.5-0.9-7.5,0-10.8,2.5
				c-2,1.5-4,3.9-4.8,6.3c-0.5,1.6-1.4,2-2.7,0.7c-1.9-1.7-4.8-2.7-7.3-3.1c-4.1-0.5-8,0.8-10.6,3.3C17.5,19.4,16.6,21.9,16.7,24.5
				L16.7,24.5z"/>
		</defs>
		<clipPath id="SVGID_8_">
			<use xlink:href="#SVGID_7_"  style="overflow:visible;"/>
		</clipPath>
		<polygon class="st7" points="19.8,68.9 42.4,66.4 63.8,46.9 64.9,65.1 49.2,83 23.7,75 		"/>
		<path class="st8" d="M12,52.9c0,0,3.4,8.7,12.9,9.2c9.4,0.5,14.5-0.2,19.3-2.8c4.8-2.5,11.1-8,12.8-11.1c1.7-3,3.3-7.2,3.3-7.2
			l0.9,5.6c0,0-2.9,10.5-6.3,14.1c-3.4,3.5-11.2,9.2-16.7,9.5c-5.4,0.4-9.9,0.4-11.6,0c-1.7-0.4-4.3-0.9-4.3-0.9l-7-6l-3.9-7.5
			L12,52.9z"/>
	</g>
	<g>
		<defs>
			<path id="SVGID_9_" d="M37.7,17c-1.9-1.7-4.8-2.7-7.3-3.1c-4.1-0.5-8,0.8-10.6,3.3c-4,3.8-3.6,8.7-1.4,13.2
				c4.1,8.6,18.5,18.7,28.7,16c10.2-2.7,17.6-18.8,16.9-28.3c-0.4-4.9-2.5-9.3-7.9-10.7c-3.5-0.9-7.5,0-10.8,2.5
				c-2,1.5-4,3.9-4.8,6.3C39.9,17.8,39,18.3,37.7,17L37.7,17z"/>
		</defs>
		<clipPath id="SVGID_10_">
			<use xlink:href="#SVGID_9_"  style="overflow:visible;"/>
		</clipPath>
		<path class="st9" d="M47.5,47c8.3-2.2,14.1-10.1,16-23.3C61.2,33.2,51,40.2,41.6,42.5c-2.9,0.7-9.5,1.1-12.4-0.5
			C29.3,43.1,36.6,49.9,47.5,47L47.5,47z"/>
	</g>
</g>
</svg>
